<svg width="200" height="200" viewBox="0 0 200 200" fill="none" xmlns="http://www.w3.org/2000/svg">
<path d="M20 20 L100 20 L60 90 Z" fill="#3366FF"/>
<g transform="translate(100,100) rotate(15)">
<path d="M0 0h60v40h-60z" fill="#FF6633" fill-opacity="0.8"/>
</g>
<g filter="url(#blur0)">
<path d="M30 130C30 100 90 100 90 130S150 160 150 130" fill="#22AA88"/>
</g>
<path fill-rule="evenodd" d="M70 160a30 30 0 1 0 60 0a30 30 0 1 0-60 0M85 160a15 15 0 1 1 30 0a15 15 0 1 1-30 0" fill="#334455"/>
<ellipse cx="145" cy="40" rx="25" ry="18" fill="#AA22CC" transform="scale(1.1)"/>
<defs>
<filter id="blur0" x="0" y="80" width="200" height="120" filterUnits="userSpaceOnUse" color-interpolation-filters="sRGB">
<feFlood flood-opacity="0" result="BackgroundImageFix"/>
<feBlend mode="normal" in="SourceGraphic" in2="BackgroundImageFix" result="shape"/>
<feGaussianBlur stdDeviation="6" result="effect1_foregroundBlur"/>
</filter>
</defs>
</svg>
